<?xml version="1.0" standalone="no"?>
<!DOCTYPE svg PUBLIC "-//W3C//DTD SVG 20010904//EN"
 "http://www.w3.org/TR/2001/REC-SVG-20010904/DTD/svg10.dtd">
<svg version="1.0" xmlns="http://www.w3.org/2000/svg"
 width="288.000000pt" height="194.000000pt" viewBox="0 0 288.000000 194.000000"
 preserveAspectRatio="xMidYMid meet">
<metadata>
Created by potrace 1.15, written by Peter Selinger 2001-2017
</metadata>
<g transform="translate(0.000000,194.000000) scale(0.100000,-0.100000)"
fill="#000000" stroke="none">
<path d="M680 1589 c0 -4 6 -9 14 -12 9 -4 17 -39 25 -104 14 -113 19 -135 31
-128 4 3 36 50 70 105 34 55 73 108 86 119 13 10 24 20 24 22 0 2 -16 4 -35 5
-30 0 -34 -2 -30 -20 4 -14 -13 -48 -47 -101 l-52 -80 -11 85 c-9 68 -8 87 2
96 20 17 17 19 -32 19 -25 0 -45 -3 -45 -6z"/>
<path d="M2130 1589 c0 -4 7 -9 15 -13 11 -4 15 -22 16 -68 1 -35 4 -87 7
-117 8 -64 9 -63 75 52 l44 78 6 -53 c4 -29 7 -70 7 -90 0 -21 4 -38 8 -38 4
0 36 50 71 111 35 60 72 115 82 122 29 18 23 24 -18 21 -50 -3 -49 -2 -30 -16
15 -12 12 -20 -29 -91 -25 -43 -47 -77 -49 -75 -1 1 -6 40 -9 86 -6 71 -5 82
8 82 9 0 16 4 16 8 0 6 -57 8 -90 2 -3 0 3 -5 13 -11 9 -5 17 -14 17 -19 0 -4
-19 -41 -42 -82 l-43 -73 -7 50 c-11 89 -9 125 7 125 8 0 15 3 15 8 0 4 -20 7
-45 7 -25 0 -45 -3 -45 -6z"/>
<path d="M1876 1520 c3 -14 15 -35 26 -47 l20 -21 -24 -5 -23 -4 24 -2 24 -1
-20 -22 c-24 -27 -36 -58 -23 -58 6 0 10 7 10 15 0 8 15 26 34 41 l34 27 -32
31 c-17 17 -37 40 -44 51 -12 19 -12 18 -6 -5z"/>
<path d="M1133 1443 c15 -2 39 -2 55 0 15 2 2 4 -28 4 -30 0 -43 -2 -27 -4z"/>
<path d="M1283 1443 c15 -2 39 -2 55 0 15 2 2 4 -28 4 -30 0 -43 -2 -27 -4z"/>
<path d="M1443 1443 c15 -2 39 -2 55 0 15 2 2 4 -28 4 -30 0 -43 -2 -27 -4z"/>
<path d="M1593 1443 c15 -2 39 -2 55 0 15 2 2 4 -28 4 -30 0 -43 -2 -27 -4z"/>
<path d="M1753 1443 c15 -2 39 -2 55 0 15 2 2 4 -28 4 -30 0 -43 -2 -27 -4z"/>
<path d="M1890 1242 c0 -9 29 -25 64 -36 10 -4 17 -8 15 -10 -2 -1 -188 -142
-414 -312 -225 -170 -416 -315 -425 -322 -13 -12 -13 -13 1 -9 8 3 200 145
427 316 226 171 413 311 415 311 3 0 7 -18 11 -40 9 -59 21 -48 21 20 0 59 0
60 -28 60 -15 0 -41 7 -57 15 -17 9 -30 12 -30 7z"/>
<path d="M795 1199 c-4 -11 -22 -27 -41 -36 -19 -9 -34 -20 -34 -25 0 -9 26 0
58 20 l22 14 0 -286 c0 -184 4 -286 10 -286 6 0 10 102 10 286 l0 286 23 -14
c30 -20 57 -29 57 -20 0 4 -14 13 -31 21 -17 7 -35 24 -41 37 -14 29 -25 31
-33 3z"/>
<path d="M685 979 c-10 -15 3 -25 16 -12 7 7 7 13 1 17 -6 3 -14 1 -17 -5z"/>
<path d="M647 923 c-4 -3 -7 -13 -7 -22 1 -14 2 -13 11 2 19 33 29 17 13 -24
-13 -31 -14 -43 -5 -52 13 -13 42 0 49 24 2 8 -3 5 -11 -6 -23 -30 -29 -13
-12 29 9 20 13 41 10 46 -7 11 -38 13 -48 3z"/>
<path d="M1758 799 c-9 -5 -19 -20 -22 -33 -3 -14 -14 -27 -24 -29 -15 -4 -15
-5 2 -6 14 -1 17 -6 13 -23 -4 -13 -9 -42 -13 -66 -6 -38 -24 -70 -24 -43 0 6
-4 11 -10 11 -5 0 -10 -7 -10 -15 0 -8 9 -15 21 -15 23 0 43 39 54 108 5 29
12 42 23 43 11 0 12 2 5 6 -16 6 -17 49 -3 58 6 4 9 2 8 -3 -4 -13 15 -17 20
-4 4 14 -22 21 -40 11z"/>
<path d="M713 458 c-2 -5 3 -8 11 -8 14 0 56 -78 56 -104 0 -18 -94 -106 -113
-106 -9 0 -17 -4 -17 -10 0 -5 18 -10 41 -10 34 0 40 3 35 17 -4 11 4 28 26
50 17 18 35 33 39 33 4 0 13 -16 19 -35 9 -28 9 -39 0 -50 -11 -13 -5 -15 41
-15 53 0 54 1 32 18 -12 9 -31 39 -43 66 l-20 48 35 44 c20 24 47 47 61 50 37
9 29 19 -16 19 -32 0 -39 -3 -35 -15 3 -10 -7 -28 -24 -44 -29 -27 -29 -28
-40 -8 -14 27 -14 52 1 52 6 0 8 3 5 6 -9 10 -88 10 -94 2z"/>
</g>
</svg>
