<?xml version="1.0" standalone="no"?>
<!DOCTYPE svg PUBLIC "-//W3C//DTD SVG 20010904//EN"
 "http://www.w3.org/TR/2001/REC-SVG-20010904/DTD/svg10.dtd">
<svg version="1.0" xmlns="http://www.w3.org/2000/svg"
 width="250.000000pt" height="200.000000pt" viewBox="0 0 250.000000 200.000000"
 preserveAspectRatio="xMidYMid meet">
<metadata>
Created by potrace 1.15, written by Peter Selinger 2001-2017
</metadata>
<g transform="translate(0.000000,200.000000) scale(0.100000,-0.100000)"
fill="#000000" stroke="none">
<path d="M1326 1774 c-9 -8 -16 -24 -16 -35 0 -11 -7 -19 -17 -19 -14 0 -15
-2 -4 -9 10 -6 11 -20 6 -52 -11 -71 -14 -77 -35 -72 -24 6 -27 -15 -3 -24 24
-10 51 31 59 89 5 38 12 52 28 58 17 7 18 9 4 9 -19 1 -22 9 -12 36 5 13 9 14
15 4 10 -17 23 -4 16 16 -8 19 -21 19 -41 -1z"/>
<path d="M628 1614 c-14 -21 -43 -71 -66 -111 -23 -39 -54 -80 -69 -92 l-28
-20 43 -1 c39 0 57 13 30 22 -7 3 -5 13 7 31 14 23 25 27 61 27 41 0 44 -2 44
-26 0 -15 -8 -33 -17 -40 -16 -12 -12 -13 31 -14 46 0 48 1 34 18 -11 11 -18
49 -23 118 -9 127 -15 139 -47 88z m12 -79 c0 -43 -1 -45 -30 -45 -16 0 -30 3
-30 6 0 13 44 84 52 84 4 0 8 -20 8 -45z"/>
<path d="M1975 1630 c-3 -5 1 -10 9 -10 20 0 20 2 -6 -109 -19 -79 -26 -95
-48 -105 -22 -9 -14 -11 58 -14 96 -3 140 14 157 62 8 24 6 31 -13 46 -23 19
-23 19 -3 30 50 26 50 82 -1 99 -39 14 -145 14 -153 1z m153 -41 c4 -32 -24
-58 -73 -66 l-38 -6 7 43 c9 59 12 61 59 58 37 -3 42 -6 45 -29z m-20 -111 c5
-39 -28 -68 -78 -68 -44 0 -46 4 -29 63 10 38 11 38 57 35 43 -3 47 -5 50 -30z"/>
<path d="M1660 1567 c0 -11 9 -32 21 -48 l20 -29 -413 -3 -413 -2 413 -3 413
-2 -20 -26 c-12 -15 -21 -34 -21 -43 0 -9 8 -3 20 16 11 18 29 38 40 45 25 16
25 25 0 33 -11 4 -29 23 -40 43 -12 24 -19 31 -20 19z"/>
<path d="M1640 1281 c0 -13 17 -23 53 -30 29 -6 25 -10 -112 -116 -432 -334
-666 -518 -670 -528 -5 -14 23 7 310 230 129 101 295 230 369 288 l135 104 6
-39 c3 -22 9 -43 13 -47 4 -4 4 11 0 34 -3 24 -2 49 5 62 11 20 9 21 -26 21
-21 0 -49 7 -61 16 -12 8 -22 11 -22 5z"/>
<path d="M577 1241 c-2 -11 -22 -29 -43 -40 -25 -13 -32 -20 -21 -21 11 0 32
9 48 21 l29 20 3 -293 2 -293 3 293 2 293 26 -20 c15 -12 34 -21 43 -21 9 0 3
8 -16 20 -17 10 -37 28 -43 39 -13 26 -26 27 -33 2z"/>
<path d="M362 987 c-24 -26 -29 -59 -9 -75 14 -12 137 -13 137 -1 0 5 -7 6
-15 3 -19 -8 -19 15 0 40 8 11 15 27 15 35 -1 11 -5 8 -13 -7 l-13 -23 -12 25
c-15 34 -60 35 -90 3z m74 -14 c9 -33 -6 -57 -38 -61 -33 -4 -42 20 -23 59 20
37 52 39 61 2z"/>
<path d="M1497 830 c-18 -14 -31 -42 -46 -98 -20 -75 -29 -152 -10 -86 8 27
12 30 39 26 18 -3 40 2 56 13 23 15 26 22 21 56 -3 21 -1 42 4 45 16 9 10 43
-10 54 -25 13 -24 13 -54 -10z m48 -21 c0 -19 -6 -25 -27 -27 -35 -4 -37 -22
-3 -22 20 0 25 -5 25 -24 0 -31 -26 -58 -54 -54 -26 4 -30 25 -16 78 19 70 75
107 75 49z"/>
<path d="M503 498 c-2 -5 3 -8 11 -8 14 0 56 -78 56 -104 0 -18 -94 -106 -113
-106 -9 0 -17 -4 -17 -10 0 -5 18 -10 41 -10 34 0 40 3 35 17 -4 11 4 28 26
50 17 18 35 33 39 33 4 0 13 -16 19 -35 9 -28 9 -39 0 -50 -11 -13 -5 -15 41
-15 53 0 54 1 32 18 -12 9 -31 39 -43 66 l-20 48 35 44 c19 23 44 46 55 49 31
10 23 21 -15 21 -28 0 -34 -3 -30 -16 3 -10 -7 -28 -24 -44 -29 -27 -29 -28
-40 -8 -14 27 -14 52 1 52 6 0 8 3 5 6 -9 10 -88 10 -94 2z"/>
</g>
</svg>
