<?xml version="1.0" standalone="no"?>
<!DOCTYPE svg PUBLIC "-//W3C//DTD SVG 20010904//EN"
 "http://www.w3.org/TR/2001/REC-SVG-20010904/DTD/svg10.dtd">
<svg version="1.0" xmlns="http://www.w3.org/2000/svg"
 width="254.000000pt" height="204.000000pt" viewBox="0 0 254.000000 204.000000"
 preserveAspectRatio="xMidYMid meet">
<metadata>
Created by potrace 1.15, written by Peter Selinger 2001-2017
</metadata>
<g transform="translate(0.000000,204.000000) scale(0.100000,-0.100000)"
fill="#000000" stroke="none">
<path d="M1366 1764 c-9 -8 -16 -24 -16 -35 0 -11 -7 -19 -17 -19 -14 0 -15
-2 -4 -9 10 -6 11 -20 6 -52 -11 -71 -14 -77 -35 -72 -24 6 -27 -15 -3 -24 24
-10 51 31 59 89 5 38 12 52 28 58 17 7 18 9 4 9 -19 1 -22 9 -12 36 5 13 9 14
15 4 10 -17 23 -4 16 16 -8 19 -21 19 -41 -1z"/>
<path d="M500 1619 c0 -4 6 -9 14 -12 9 -4 17 -39 25 -104 14 -113 19 -135 31
-128 4 3 36 50 70 105 34 55 73 108 86 119 13 10 24 20 24 22 0 2 -16 4 -35 5
-30 0 -34 -2 -30 -20 4 -14 -13 -48 -47 -101 l-52 -80 -11 85 c-9 68 -8 87 2
96 20 17 17 19 -32 19 -25 0 -45 -3 -45 -6z"/>
<path d="M1950 1619 c0 -4 7 -9 15 -13 11 -4 15 -22 16 -68 1 -35 4 -87 7
-117 8 -64 9 -63 75 52 l44 78 6 -53 c4 -29 7 -70 7 -90 0 -21 4 -38 8 -38 4
0 36 50 71 111 35 60 72 115 82 122 29 18 23 24 -18 21 -50 -3 -49 -2 -30 -16
15 -12 12 -20 -29 -91 -25 -43 -47 -77 -49 -75 -1 1 -6 40 -9 86 -6 71 -5 82
8 82 9 0 16 4 16 8 0 6 -57 8 -90 2 -3 0 3 -5 13 -11 9 -5 17 -14 17 -19 0 -4
-19 -41 -42 -82 l-43 -73 -7 50 c-11 89 -9 125 7 125 8 0 15 3 15 8 0 4 -20 7
-45 7 -25 0 -45 -3 -45 -6z"/>
<path d="M1690 1547 c0 -8 9 -26 20 -40 19 -24 19 -26 3 -30 -17 -4 -17 -5 -1
-6 16 -1 16 -4 -2 -33 -11 -18 -20 -40 -20 -48 1 -8 10 2 20 22 11 20 29 39
40 43 27 9 25 17 -10 43 -16 13 -30 29 -30 37 0 7 -4 17 -10 20 -5 3 -10 0
-10 -8z"/>
<path d="M943 1473 c15 -2 39 -2 55 0 15 2 2 4 -28 4 -30 0 -43 -2 -27 -4z"/>
<path d="M1103 1473 c15 -2 39 -2 55 0 15 2 2 4 -28 4 -30 0 -43 -2 -27 -4z"/>
<path d="M1253 1473 c15 -2 39 -2 55 0 15 2 2 4 -28 4 -30 0 -43 -2 -27 -4z"/>
<path d="M1413 1473 c15 -2 39 -2 55 0 15 2 2 4 -28 4 -30 0 -43 -2 -27 -4z"/>
<path d="M1563 1473 c15 -2 39 -2 55 0 15 2 2 4 -28 4 -30 0 -43 -2 -27 -4z"/>
<path d="M1714 1261 c4 -6 22 -17 39 -24 l31 -13 -422 -319 c-232 -175 -420
-320 -417 -323 5 -5 29 13 528 389 l327 248 0 -39 c0 -21 3 -41 8 -44 4 -2 8
14 8 37 0 23 3 49 7 58 7 14 1 18 -35 21 -24 3 -52 8 -62 13 -14 6 -17 5 -12
-4z"/>
<path d="M597 1215 c-15 -19 -34 -35 -42 -35 -8 0 -17 -5 -21 -11 -11 -18 38
0 63 24 l23 20 3 -294 2 -294 3 294 2 294 23 -20 c26 -24 57 -36 57 -23 0 6
-6 10 -14 10 -8 0 -27 16 -43 35 l-29 34 -27 -34z"/>
<path d="M392 967 c-24 -26 -29 -59 -9 -75 14 -12 137 -13 137 -1 0 5 -7 6
-15 3 -19 -8 -19 15 0 40 8 11 15 27 15 35 -1 11 -5 8 -13 -7 l-13 -23 -12 25
c-15 34 -60 35 -90 3z m74 -14 c9 -33 -6 -57 -38 -61 -33 -4 -42 20 -23 59 20
37 52 39 61 2z"/>
<path d="M1547 810 c-18 -14 -31 -42 -46 -98 -20 -75 -29 -152 -10 -86 8 27
12 30 39 26 18 -3 40 2 56 13 23 15 26 22 21 56 -3 21 -1 42 4 45 16 9 10 43
-10 54 -25 13 -24 13 -54 -10z m48 -21 c0 -19 -6 -25 -27 -27 -35 -4 -37 -22
-3 -22 20 0 25 -5 25 -24 0 -31 -26 -58 -54 -54 -26 4 -30 25 -16 78 19 70 75
107 75 49z"/>
<path d="M533 478 c-2 -5 3 -8 11 -8 13 0 56 -78 56 -102 0 -16 -94 -97 -112
-98 -38 0 -16 -20 23 -20 34 0 40 3 35 17 -7 18 39 73 61 73 20 0 37 -51 24
-72 -10 -16 -6 -18 41 -18 52 0 53 1 32 18 -12 9 -32 36 -44 60 l-21 44 36 44
c20 24 47 47 61 50 37 9 29 19 -16 19 -32 0 -39 -3 -35 -15 3 -10 -7 -28 -24
-44 -29 -27 -29 -28 -40 -8 -14 27 -14 52 1 52 6 0 8 3 5 6 -9 10 -88 10 -94
2z"/>
</g>
</svg>
