<svg xmlns="http://www.w3.org/2000/svg" viewBox="0 0 740 380" width="740" height="380">
  <defs>
    <marker id="arrow" markerWidth="10" markerHeight="10" refX="10" refY="5" orient="auto" markerUnits="strokeWidth">
      <path d="M 0 0 L 10 5 L 0 10 z" fill="currentColor"/>
    </marker>
    <marker id="arrow-hollow" markerWidth="10" markerHeight="10" refX="10" refY="5" orient="auto" markerUnits="strokeWidth">
      <path d="M 0 0 L 10 5 L 0 10 z" fill="white" stroke="currentColor" stroke-width="1.5"/>
    </marker>
  </defs>
  <g fill="none" stroke="#111" stroke-width="2">
    <path d="M 40 40 L 40 190" stroke-width="3" marker-end="url(#arrow)"/>
    <text x="24.0" y="109.0" fill="#111" font-family="serif" font-style="italic" font-size="18" text-anchor="middle">ᵀδK</text>
    <path d="M 40 40 Q 142.11328445501886 126.56718279930567 260 190" stroke-width="3" stroke-dasharray="8 6" marker-end="url(#arrow)"/>
    <text x="146.05664222750943" y="106.78359139965283" fill="#111" font-family="serif" font-style="italic" font-size="18" text-anchor="middle">ηK</text>
    <path d="M 40 40 Q 251.8686170197389 138.8520567420992 480 190" stroke-width="3" stroke-dasharray="8 6" marker-end="url(#arrow)"/>
    <text x="255.93430850986945" y="112.9260283710496" fill="#111" font-family="serif" font-style="italic" font-size="18" text-anchor="middle">Pμ</text>
    <path d="M 40 190 Q 150.0 178.8 260 190" stroke-width="3" marker-end="url(#arrow)"/>
    <text x="150.0" y="170.4" fill="#111" font-family="serif" font-style="italic" font-size="18" text-anchor="middle">ϑK</text>
    <path d="M 40 190 L 480 190" stroke-width="3" marker-end="url(#arrow)"/>
    <text x="260.0" y="208.0" fill="#111" font-family="serif" font-style="italic" font-size="18" text-anchor="middle">P
u</text>
    <path d="M 260 190 L 480 190" stroke-width="3" marker-end="url(#arrow)"/>
    <text x="370.0" y="176.0" fill="#111" font-family="serif" font-style="italic" font-size="18" text-anchor="middle">ψ</text>
  </g>
  <g fill="#111" font-family="serif" font-size="20" text-anchor="middle">
    <text x="40" y="34" style="font-style:italic">PFK</text>
    <text x="40" y="184" style="font-style:italic">PGK</text>
    <text x="260" y="184" style="font-style:italic">UK</text>
    <text x="480" y="184" style="font-style:italic">PM</text>
  </g>
</svg>