<svg xmlns="http://www.w3.org/2000/svg" viewBox="0 0 960 380" width="960" height="380">
  <defs>
    <marker id="arrow" markerWidth="10" markerHeight="10" refX="10" refY="5" orient="auto" markerUnits="strokeWidth">
      <path d="M 0 0 L 10 5 L 0 10 z" fill="currentColor"/>
    </marker>
    <marker id="arrow-hollow" markerWidth="10" markerHeight="10" refX="10" refY="5" orient="auto" markerUnits="strokeWidth">
      <path d="M 0 0 L 10 5 L 0 10 z" fill="white" stroke="currentColor" stroke-width="1.5"/>
    </marker>
  </defs>
  <g fill="none" stroke="#111" stroke-width="2">
    <path d="M 40 40 L 260 40" stroke-width="2" marker-end="url(#arrow)"/>
    <text x="150.0" y="26.0" fill="#111" font-family="serif" font-style="italic" font-size="18" text-anchor="middle">fᵢ</text>
    <path d="M 40 40 Q 260.0 59.6 480 40" stroke-width="2" marker-end="url(#arrow)"/>
    <text x="260.0" y="35.8" fill="#111" font-family="serif" font-style="italic" font-size="18" text-anchor="middle">gᵢ</text>
    <path d="M 260 40 L 480 40" stroke-width="2" marker-end="url(#arrow)"/>
    <text x="370.0" y="26.0" fill="#111" font-family="serif" font-style="italic" font-size="18" text-anchor="middle">h</text>
    <path d="M 40 40 L 40 190" stroke-width="2" marker-end="url(#arrow)"/>
    <text x="24.0" y="109.0" fill="#111" font-family="serif" font-style="italic" font-size="18" text-anchor="middle">P</text>
    <path d="M 260 40 L 480 190" stroke-width="2" marker-end="url(#arrow)"/>
    <text x="386.0" y="109.0" fill="#111" font-family="serif" font-style="italic" font-size="18" text-anchor="middle">P</text>
    <path d="M 480 40 L 700 190" stroke-width="2" marker-end="url(#arrow)"/>
    <text x="606.0" y="109.0" fill="#111" font-family="serif" font-style="italic" font-size="18" text-anchor="middle">P</text>
    <path d="M 40 190 L 260 190" stroke-width="2" marker-end="url(#arrow)"/>
    <text x="150.0" y="176.0" fill="#111" font-family="serif" font-style="italic" font-size="18" text-anchor="middle">uᵢ</text>
    <path d="M 40 190 Q 260.0 174.6 480 190" stroke-width="2" marker-end="url(#arrow)"/>
    <text x="260.0" y="200.3" fill="#111" font-family="serif" font-style="italic" font-size="18" text-anchor="middle">Pfᵢ</text>
    <path d="M 40 190 Q 370.0 164.8 700 190" stroke-width="2" marker-end="url(#arrow)"/>
    <text x="370.0" y="195.4" fill="#111" font-family="serif" font-style="italic" font-size="18" text-anchor="middle">Pgᵢ</text>
    <path d="M 260 190 L 480 190" stroke-width="2" marker-end="url(#arrow)"/>
    <text x="370.0" y="176.0" fill="#111" font-family="serif" font-style="italic" font-size="18" text-anchor="middle">q</text>
    <path d="M 260 190 Q 480.0 202.6 700 190" stroke-width="2" marker-end="url(#arrow)"/>
    <text x="480.0" y="182.3" fill="#111" font-family="serif" font-style="italic" font-size="18" text-anchor="middle">v</text>
    <path d="M 480 190 L 700 190" stroke-width="2" stroke-dasharray="8 6" marker-end="url(#arrow)"/>
    <text x="590.0" y="176.0" fill="#111" font-family="serif" font-style="italic" font-size="18" text-anchor="middle">Ph</text>
  </g>
  <g fill="#111" font-family="serif" font-size="20" text-anchor="middle">
    <text x="40" y="34" style="font-style:italic">Aᵢ</text>
    <text x="260" y="34" style="font-style:italic">B</text>
    <text x="480" y="34" style="font-style:italic">C</text>
    <text x="40" y="184" style="font-style:italic">PAᵢ</text>
    <text x="260" y="184" style="font-style:italic">Y</text>
    <text x="480" y="184" style="font-style:italic">PB</text>
    <text x="700" y="184" style="font-style:italic">PC</text>
  </g>
</svg>